<svg version="1.2" xmlns="http://www.w3.org/2000/svg" viewBox="0 0 300 101" width="300" height="101"><style>.a{fill:#263872}.b{fill:#fff}.c{fill:#ec8b5d}</style><path class="a" d="m21.2 12.9c0 0 0.8 0.6 1.1 0.7v9.1h-1.1z"/><path class="a" d="m21.3 23.1h1c0.4 0 0.4 0.5 0.4 0.7 0 0.2 0 0.8-0.3 0.9-0.3 0.1-0.8 0-1.1 0-0.3 0-0.5 0-0.5-0.4v-1c0-0.2 0.2-0.2 0.5-0.2z"/><path class="a" d="m23.2 29.2h0.4l-1.2-4h-1.3l-1.2 4h2.7z"/><path class="a" d="m10.9 9.7l45.9-6.4 47.5 6.4-21.9 5.9-0.1 5c0 0 14 5.9 16.4 19.3 2.2 12.6-2.7 22.4-7.1 27.8l-0.3 30.6h-46.8v-10.4c0 0-10.1 0.4-13.7-3.2-3.5-3.5-4-8.3-3.1-14.1l-10.9-0.2c0 0 3-9.4 5.1-14.9 2.1-5.5 2.5-8.2 2.5-11.2 0-3 5.6-14.1 8.3-16.9l0.1-11.2z"/><path class="b" d="m45.8 69.2c0 0-3.6 20 17.5 16.7v11.4h26.8v-30.2c0 0 14.2-16.3 3-35.5 0 0-6.4-12.3-28.4-11.6-22.6 0.8-21.5 27.8-21.5 27.8l-7.3 21z"/><path class="c" d="m51.2 55.5c-2 0-3.6-1.6-3.6-3.6 0-2 1.6-3.6 3.6-3.6 2 0 3.6 1.6 3.6 3.6 0 2-1.6 3.6-3.6 3.6z"/><path class="b" d="m31.2 55.5c-2 0-3.6-1.6-3.6-3.6 0-2 1.6-3.6 3.6-3.6 2 0 3.6 1.6 3.6 3.6 0 2-1.6 3.6-3.6 3.6z"/><path class="c" d="m57.4 45.1c-0.2 0-1-0.6-1.3-0.7-1.1-0.9-4-3-3.3-5.9 0.7-2.6 2-3.7 2.7-4.1q0.5-0.2 0.7-0.7c0.4-1.2 1.8-4.2 4.3-4.4 3.2-0.2 3.5-1.1 4.1-1.9 0.5-0.8 2.6-1.5 4.2-1 1.5 0.4 2.5 0.8 3.1 0.3 0.6-0.4 4.5-0.8 5.9 0.1 1.4 1 3 1 3.9 1 0.8 0.1 3.6 2.2 3.8 2.9 0.2 0.8 3.4 2.5 3.7 4.6 0.2 2.2 0.2 3.9 0.9 4.5 0.6 0.6 0 3.7-0.7 5.3-0.6 1.7-1.6 3.9-3.2 5.3-1.6 1.3-3.3 2.6-4 3.8-0.3 0.7-0.5 1.7-0.6 2.6 0 0.7-0.6 1.3-1.3 1.3h-3.7c-0.7 0-1.3-0.7-1.3-1.4 0-2.1 0-5.8 0.1-6.6 0-1.2-1.7-2.4-2.6-3.4-0.9-1.1-1.4-1.2-3.4-1.9-2-0.6-4.1-0.2-4.8 0-0.6 0.2-1.6-0.2-2.4-0.4-0.9-0.2-1.4 0.8-2.2 0.8-0.5 0-1.9-0.1-2.6-0.1z"/><path class="a" d="m114.3 44l-2.1 1.8q-1.2-1.5-2.3-1.5-0.6 0-0.9 0.3-0.4 0.3-0.4 0.7 0 0.4 0.3 0.7 0.3 0.4 2.1 1.9 1.6 1.4 1.9 1.8 0.9 0.8 1.3 1.6 0.3 0.8 0.3 1.8 0 1.8-1.2 3.1-1.3 1.2-3.4 1.2-1.6 0-2.8-0.8-1.2-0.8-2-2.5l2.4-1.5q1.1 2 2.5 2 0.7 0 1.2-0.4 0.5-0.4 0.5-1 0-0.5-0.3-1-0.4-0.5-1.7-1.6-2.5-2-3.2-3.1-0.7-1.1-0.7-2.1 0-1.6 1.2-2.7 1.2-1.2 2.9-1.2 1.2 0 2.2 0.6 1 0.5 2.2 1.9z"/><path fill-rule="evenodd" class="a" d="m117.5 41.9h3q2.5 0 3.5 0.5 1.1 0.4 1.7 1.4 0.7 1.1 0.7 2.5 0 1.5-0.7 2.5-0.8 1-2.2 1.5l3.6 6.7h-3.2l-3.3-6.4h-0.3v6.4h-2.8zm2.8 5.9h0.9q1.4 0 1.9-0.4 0.5-0.3 0.5-1.2 0-0.5-0.3-0.8-0.2-0.4-0.6-0.6-0.5-0.1-1.6-0.1h-0.8z"/><path class="a" d="m129.4 41.9h8.2v2.8h-5.4v2.8h5.4v2.7h-5.4v4h5.4v2.8h-8.2c0 0 0-15.1 0-15.1z"/><path class="a" d="m148.1 44l-2.1 1.8q-1.1-1.5-2.3-1.5-0.5 0-0.9 0.3-0.3 0.3-0.3 0.7 0 0.4 0.2 0.7 0.4 0.4 2.1 1.9 1.6 1.4 2 1.8 0.9 0.8 1.2 1.6 0.4 0.8 0.4 1.8 0 1.8-1.3 3.1-1.3 1.2-3.3 1.2-1.6 0-2.8-0.8-1.2-0.8-2.1-2.5l2.5-1.5q1 2 2.4 2 0.8 0 1.3-0.4 0.5-0.4 0.5-1 0-0.5-0.4-1-0.4-0.5-1.7-1.6-2.4-2-3.1-3.1-0.7-1.1-0.7-2.1 0-1.6 1.1-2.7 1.2-1.2 3-1.2 1.1 0 2.1 0.6 1 0.5 2.2 1.9z"/><path class="a" d="m151.1 41.9h2.9v5.7h5v-5.7h2.9v15.1h-2.9v-6.6h-5v6.6h-2.9z"/><path class="a" d="m163.8 41.9h8.3v2.8h-2.7v12.3h-2.9v-12.3h-2.7z"/><path fill-rule="evenodd" class="a" d="m178.7 41.9h2.9l5.7 15.1h-2.9l-1.2-3.1h-6.1l-1.2 3.1h-3zm1.5 4l-2.1 5.2h4.1z"/><path class="c" d="m195.4 41.9h8.2v2.8h-5.4v2.8h5.4v2.7h-5.4v4h5.4v2.8h-8.2z"/><path fill-rule="evenodd" class="c" d="m206.3 41.9h3.4q3.2 0 4.8 0.8 1.6 0.9 2.6 2.7 1.1 1.8 1.1 4.3 0 1.7-0.6 3.2-0.6 1.4-1.6 2.4-1 1-2.2 1.3-1.2 0.4-4.1 0.4h-3.4zm2.8 2.8v9.5h1.3q2 0 2.9-0.5 0.9-0.4 1.4-1.5 0.6-1.1 0.6-2.6 0-2.4-1.4-3.8-1.2-1.1-3.8-1.1z"/><path class="c" d="m220.8 41.9h2.9v9.8q0 1.2 0.2 1.7 0.2 0.6 0.7 0.9 0.5 0.3 1.2 0.3 0.8 0 1.3-0.4 0.6-0.3 0.8-0.8 0.2-0.6 0.2-2.1v-9.4h2.9v9q0 2.3-0.3 3.2-0.3 0.8-1 1.7-0.7 0.8-1.6 1.2-1 0.4-2.2 0.4-1.6 0-2.9-0.8-1.2-0.7-1.7-1.9-0.5-1.1-0.5-3.8z"/><path class="c" d="m232.8 41.9h8.3v2.8h-2.7v12.3h-2.9v-12.3h-2.7z"/><path class="c" d="m243.1 41.9h8.1v2.8h-5.3v2.8h5.3v2.7h-5.3v4h5.3v2.8h-8.1z"/><path class="c" d="m267.7 44.6l-2 1.9q-2-2.2-4.6-2.2-2.1 0-3.6 1.5-1.5 1.5-1.5 3.6 0 1.5 0.7 2.7 0.6 1.2 1.8 1.8 1.2 0.7 2.7 0.7 1.2 0 2.2-0.5 1.1-0.4 2.3-1.7l1.9 2.1q-1.6 1.6-3.1 2.2-1.5 0.7-3.4 0.7-3.5 0-5.7-2.3-2.2-2.2-2.2-5.7 0-2.2 1-4 1-1.7 2.9-2.8 1.9-1.1 4.1-1.1 1.8 0 3.5 0.8 1.8 0.8 3 2.3z"/><path class="c" d="m270.2 41.9h2.9v5.7h5v-5.7h2.9v15.1h-2.9v-6.6h-5v6.6h-2.9z"/><path class="a" d="m108 70.6c0-4.4 3.6-8 8-8h161.7c4.5 0 8 3.6 8 8v3c0 4.4-3.5 8-8 8h-161.7c-4.4 0-8-3.6-8-8z"/><path class="b" d="m122.4 69.2l-0.6 0.5q-0.5-0.7-1.2-1-0.7-0.3-1.6-0.3-0.9 0-1.7 0.4-0.8 0.4-1.2 1.2-0.4 0.7-0.4 1.7 0 1.4 0.9 2.4 1 0.9 2.5 0.9 1.6 0 2.7-1.3l0.6 0.5q-0.6 0.7-1.4 1.1-0.9 0.4-2 0.4-2 0-3.2-1.3-0.9-1.2-0.9-2.8 0-1.7 1.1-2.8 1.2-1.2 3-1.2 1.1 0 2 0.4 0.8 0.5 1.4 1.2z"/><path fill-rule="evenodd" class="b" d="m127.6 67.6q1.8 0 3 1.2 1.1 1.1 1.1 2.9 0 1.7-1.1 2.8-1.2 1.2-2.9 1.2-1.7 0-2.9-1.1-1.2-1.2-1.2-2.9 0-1.1 0.5-2.1 0.6-0.9 1.5-1.5 0.9-0.5 2-0.5zm0.1 0.7q-0.9 0-1.7 0.5-0.7 0.4-1.2 1.2-0.4 0.8-0.4 1.7 0 1.4 1 2.3 0.9 1 2.3 1 0.9 0 1.6-0.5 0.8-0.4 1.2-1.2 0.4-0.7 0.4-1.6 0-1-0.4-1.7-0.4-0.8-1.2-1.2-0.8-0.5-1.6-0.5z"/><path class="b" d="m132.9 75.5l1.1-7.7h0.2l3.1 6.3 3.1-6.3h0.1l1.1 7.7h-0.7l-0.8-5.5-2.7 5.5h-0.2l-2.8-5.5-0.7 5.5z"/><path fill-rule="evenodd" class="b" d="m143.2 67.8h1.5q1.3 0 1.8 0.1 0.6 0.2 1.1 0.7 0.4 0.5 0.4 1.3 0 0.7-0.4 1.2-0.4 0.5-1.2 0.7-0.5 0.1-1.9 0.1h-0.6v3.6h-0.7c0 0 0-7.7 0-7.7zm0.7 0.7v2.7h1.3q0.8 0 1.2-0.2 0.4-0.1 0.6-0.4 0.2-0.3 0.2-0.7 0-0.4-0.2-0.8-0.2-0.3-0.6-0.4-0.3-0.2-1.1-0.2c0 0-1.4 0-1.4 0z"/><path class="b" d="m149.5 67.8h0.8v7h3v0.7h-3.8z"/><path class="b" d="m154.5 67.8h4.4v0.7h-3.6v2.5h3.6v0.7h-3.6v3.1h3.6v0.7h-4.4c0 0 0-7.7 0-7.7z"/><path class="b" d="m159.5 68.5v-0.7h4.2v0.7h-1.7v7h-0.8v-7z"/><path class="b" d="m164.8 67.8h4.4v0.7h-3.6v2.5h3.6v0.7h-3.6v3.1h3.6v0.7h-4.4c0 0 0-7.7 0-7.7z"/><path class="b" d="m173.6 67.8h0.7v7h3v0.7h-3.7z"/><path class="b" d="m178.5 67.8h4.4v0.7h-3.6v2.5h3.6v0.7h-3.6v3.1h3.6v0.7h-4.4c0 0 0-7.7 0-7.7z"/><path fill-rule="evenodd" class="b" d="m187.4 67.8l3.6 7.7h-0.8l-1.2-2.5h-3.3l-1.2 2.5h-0.9l3.6-7.7zm-0.1 1.6l-1.3 2.8h2.7z"/><path fill-rule="evenodd" class="b" d="m192.3 67.8h1.5q1.3 0 1.8 0.1 0.6 0.2 1.1 0.7 0.4 0.5 0.4 1.3 0 0.6-0.3 1.1-0.3 0.4-0.8 0.7-0.6 0.2-1.6 0.2l2.8 3.6h-0.9l-2.8-3.6h-0.5v3.6h-0.7c0 0 0-7.7 0-7.7zm0.7 0.7v2.7h1.4q0.7 0 1.1-0.2 0.4-0.1 0.6-0.4 0.2-0.4 0.2-0.8 0-0.3-0.2-0.7-0.2-0.3-0.6-0.4-0.3-0.2-1.1-0.2z"/><path class="b" d="m198.8 75.5v-7.7h0.1l5.2 5.9v-5.9h0.7v7.7h-0.2l-5-5.8v5.8z"/><path class="b" d="m206.6 67.8h0.8v7.7h-0.8z"/><path class="b" d="m209.1 75.5v-7.7h0.2l5.1 5.9v-5.9h0.8v7.7h-0.2l-5.1-5.8v5.8z"/><path class="b" d="m224.5 69.1l-0.6 0.6q-0.6-0.7-1.4-1-0.8-0.3-1.5-0.3-0.9 0-1.7 0.4-0.8 0.5-1.3 1.2-0.4 0.8-0.4 1.6 0 0.9 0.4 1.7 0.5 0.8 1.3 1.2 0.8 0.5 1.8 0.5 1.2 0 2-0.7 0.9-0.7 1-1.7h-2.4v-0.8h3.3q0 1.8-1.1 2.9-1 1-2.8 1-2.1 0-3.4-1.4-0.9-1.2-0.9-2.6 0-1.1 0.5-2.1 0.6-0.9 1.5-1.5 1-0.5 2.2-0.5 1 0 1.8 0.3 0.9 0.4 1.7 1.2z"/><path class="b" d="m228.6 74.1l0.7-0.4q0.7 1.3 1.6 1.3 0.4 0 0.7-0.2 0.4-0.2 0.5-0.5 0.2-0.3 0.2-0.6 0-0.4-0.3-0.8-0.3-0.5-1.3-1.2-0.9-0.8-1.2-1.1-0.4-0.6-0.4-1.2 0-0.5 0.3-0.9 0.2-0.4 0.6-0.7 0.5-0.2 1-0.2 0.5 0 1 0.3 0.5 0.2 1 1l-0.6 0.4q-0.5-0.5-0.8-0.7-0.3-0.2-0.6-0.2-0.5 0-0.8 0.3-0.3 0.3-0.3 0.7 0 0.2 0.1 0.5 0.1 0.2 0.4 0.5 0.2 0.1 1 0.8 1 0.7 1.4 1.3 0.3 0.6 0.3 1.1 0 0.9-0.6 1.5-0.6 0.6-1.5 0.6-0.7 0-1.3-0.3-0.6-0.4-1.1-1.3z"/><path fill-rule="evenodd" class="b" d="m238.5 67.6q1.7 0 2.9 1.2 1.2 1.1 1.2 2.9 0 1.7-1.2 2.8-1.2 1.2-2.9 1.2-1.7 0-2.9-1.1-1.2-1.2-1.2-2.9 0-1.1 0.6-2.1 0.5-0.9 1.4-1.5 1-0.5 2.1-0.5zm0 0.7q-0.9 0-1.6 0.5-0.8 0.4-1.2 1.2-0.5 0.8-0.5 1.7 0 1.4 1 2.3 0.9 1 2.3 1 0.9 0 1.6-0.5 0.8-0.4 1.2-1.2 0.5-0.7 0.5-1.6 0-1-0.5-1.7-0.4-0.8-1.2-1.2-0.7-0.5-1.6-0.5z"/><path class="b" d="m244.1 67.8h0.8v7h3v0.7h-3.8z"/><path class="b" d="m249.1 67.8h0.8v4.7q0 0.8 0 1 0.1 0.5 0.3 0.8 0.2 0.3 0.6 0.5 0.5 0.2 0.9 0.2 0.4 0 0.7-0.2 0.4-0.1 0.6-0.4 0.3-0.3 0.4-0.7 0-0.3 0-1.2v-4.7h0.8v4.7q0 1-0.2 1.6-0.2 0.7-0.8 1.2-0.6 0.4-1.5 0.4-0.9 0-1.6-0.4-0.6-0.5-0.9-1.2-0.1-0.5-0.1-1.6z"/><path class="b" d="m255.4 68.5v-0.7h4.2v0.7h-1.7v7h-0.8v-7z"/><path class="b" d="m260.6 67.8h0.8v7.7h-0.8z"/><path fill-rule="evenodd" class="b" d="m266.8 67.6q1.7 0 2.9 1.2 1.2 1.1 1.2 2.9 0 1.7-1.2 2.8-1.1 1.2-2.8 1.2-1.8 0-2.9-1.1-1.2-1.2-1.2-2.9 0-1.1 0.5-2.1 0.6-0.9 1.5-1.5 0.9-0.5 2-0.5zm0 0.7q-0.8 0-1.6 0.5-0.8 0.4-1.2 1.2-0.4 0.8-0.4 1.7 0 1.4 0.9 2.3 1 1 2.3 1 0.9 0 1.7-0.5 0.8-0.4 1.2-1.2 0.4-0.7 0.4-1.6 0-1-0.4-1.7-0.4-0.8-1.2-1.2-0.8-0.5-1.7-0.5z"/><path class="b" d="m272.5 75.5v-7.7h0.1l5.2 5.9v-5.9h0.7v7.7h-0.1l-5.1-5.8v5.8z"/></svg>